<svg viewBox="0 0 16 17" fill="none" xmlns="http://www.w3.org/2000/svg">
  <path
    d="M6.16667 13.4077C2.83333 14.3351 2.83333 11.862 1.5 11.5529M10.8333 15.2625V12.8698C10.8583 12.575 10.8154 12.2786 10.7073 12.0004C10.5993 11.7222 10.4286 11.4685 10.2067 11.2561C12.3 11.0397 14.5 10.304 14.5 6.92832C14.4998 6.06513 14.1418 5.23503 13.5 4.60985C13.8039 3.85465 13.7824 3.01991 13.44 2.27902C13.44 2.27902 12.6533 2.06263 10.8333 3.19404C9.30534 2.80999 7.69466 2.80999 6.16667 3.19404C4.34667 2.06263 3.56 2.27902 3.56 2.27902C3.21758 3.01991 3.1961 3.85465 3.5 4.60985C2.85342 5.23967 2.49502 6.07727 2.5 6.94687C2.5 10.2978 4.7 11.0336 6.79333 11.2747C6.574 11.4849 6.40484 11.7355 6.29687 12.0104C6.1889 12.2852 6.14454 12.578 6.16667 12.8698V15.2625"
    stroke="white" fill="transparent" stroke-width="1.5" stroke-linecap="round" stroke-linejoin="round" />
</svg>
