<svg viewBox="0 0 110 110" fill="none" xmlns="http://www.w3.org/2000/svg">
  <defs>
    <mask id="planet-mask" style="mask-type:alpha" x="0" y="0" width="110" height="110">
      <circle cx="55" cy="55" r="53" fill="#fff" />
    </mask>
    <linearGradient id="planet-gradient" x1="40" y1="46" x2="76" y2="91">
      <stop stop-color="#68C8CB" />
      <stop offset="1" stop-color="#52ABB7" />
    </linearGradient>
  </defs>
  <g mask="url(#planet-mask)">
    <circle cx="55" cy="55" r="55" fill="url(#planet-gradient)" />
    <path
      d="M32.21 71.282c13.371 14.016 13.924 29.031 4.536 34.871-46.298-14.021-25.878-52.01-15.63-37.986 3.186 4.36 7.583-.566 11.094 3.115Z"
      fill="#72BFB7" />
    <path
      d="M38.224 37.559c-13.303 8.513-16.361 34.662-9.315 40.987-9.673 3.29-29.02 1.518-29.02-31.879S35.738 2.733 53.174 2.86c-.836.759-2.984 6.16-.977 11.928C54.706 22 70.112 27.312 63.662 35.661c-5.16 6.68-16.914-3.556-25.438 1.898Z"
      fill="#65C2C9" />
    <path opacity=".3"
      d="M87.287 56.872c10.512-10.28 13.07-26.728 6.701-35.916 0 0 10.052 8.91 14.241 22.552 4.188 13.643 3.761 45.555-35.462 63.48.862-.831-6.453-14.067-4.747-23.387 2.085-11.394 8.754-16.449 19.267-26.729Z"
      fill="#83E1E2" />
    <path
      d="M35.797 36.445C22.948 44.958 19.995 71.107 26.8 77.433c-9.343 3.289-28.028 1.517-28.028-31.88 0-33.396 34.624-43.934 51.464-43.807-.807.759-2.881 6.16-.944 11.929 2.422 7.21 17.302 12.523 11.073 20.873-4.983 6.68-16.335-3.557-24.568 1.897Z"
      fill="#C8E3D0" />
    <path
      d="M35.313 34.541C23.6 42.314 20.909 66.189 27.112 71.965 18.596 74.968 1.564 73.35 1.564 42.857c0-30.493 31.56-40.114 46.91-39.998-.736.693-2.627 5.624-.86 10.891 2.208 6.584 15.77 11.435 10.093 19.059-4.542 6.098-14.89-3.248-22.394 1.732Z"
      fill="#D4F0E1" />
    <path
      d="M96.78 22.626c.636.612 1.134 1.429 1.505 2.41 2.412 4.114 7.049 13.144 8.827 24.319 2.449 15.4 1.575 41.206-31.832 56.519.734-.71-3.687-12.64-2.234-20.603 1.775-9.733 5.566-15.44 14.52-24.223 8.002-7.849 13.845-27.758 10.72-36.013-.912-1.556-1.506-2.409-1.506-2.409Z"
      fill="#C8E3D0" />
    <path
      d="M97.2 26.188c.402.377.753.832 1.056 1.356 2.259 3.082 7.51 11.261 9.414 22.925 2.455 15.034 1.396 35.637-30.971 53.457.736-.693-1.8-12.113 0-19.523 2.225-9.162 3.328-12.218 12.3-20.791 8.373-8 13.487-28.756 9.257-36.068-.653-.89-1.056-1.356-1.056-1.356Z"
      fill="#D4F0E1" />
    <path
      d="M29.004 70.931c13.18 12.895 12.339 29.014 3.085 34.387C-.578 96.084-1.374 58.752 1.524 43.708c.483-2.507 2.982-3.224 6.169-1.432 7.01 3.94 6.45 20.775 10.375 25.79 3.14 4.011 7.475-.521 10.936 2.865Z"
      fill="#F2BD57" />
    <path
      d="M23.902 82.496c-6.209-.313-6.93 7.942-6.652 12.109 4.657 6.875 10.995 9.635 13.582 10.156.37 0 4.712-2.734 2.495-6.64-5.981-10.536-5.267-15.416-9.425-15.625Z"
      fill="#C8E3D0" />
    <path
      d="M52.662 28.473c.052-4.312 1.634-6.818-3.35-8.91C43.2 17 33.334 17.894 28.814 25.21c-1.457 2.358 1.746 5.605 4.52 5.475 11.51-.54 19.276 2.101 19.328-2.21Z"
      fill="#F2BD57" />
    <path
      d="M23.679 93.628c-2.898-.14-3.234 3.574-3.105 5.449 2.173 3.094 5.131 4.336 6.338 4.57.173 0 1.01-1.746 1.165-2.988.402-3.211-2.458-6.937-4.398-7.031Z"
      fill="#F69B85" />
    <path
      d="M.447 55.88c0 17.866 8.883 33.663 22.485 43.241C10.919 89.423 3.239 74.6 3.239 57.986c0-29.216 23.753-52.9 53.053-52.9 11.383 0 21.928 3.574 30.568 9.658C77.747 7.387 66.14 2.98 53.5 2.98 24.2 2.98.447 26.663.447 55.88Z"
      fill="#404859" style="mix-blend-mode:color-burn" opacity=".2" />
    <path d="m92.81 86.823 11.32-11.99s4.561-14.844-1.762-9.064c-9.659 8.828-9.558 21.054-9.558 21.054Z" fill="#2B303B"
      fill-opacity=".5" style="mix-blend-mode:color-burn" opacity=".3" />
    <path d="m36.538 8.843-17.153 3.926s-13.231 9.582-4.23 8.122c13.75-2.23 21.383-12.048 21.383-12.048Z"
      fill="#BAE8D6" />
  </g>
  <path
    d="M93.131 84.245a4.96 4.96 0 0 0 .047 1.773c.113.603.426 1.186.893 1.66 4.007 4.358 8.436-2.447 10.104-4.914 1.929-2.843 5.407-8.504 2.459-11.389-4.815-4.711-12.956 9.476-13.503 12.87Z"
    fill="#E6E6E6" />
  <path
    d="M97.462 87.161c-.415-.77.872-3.389.872-3.389-2.07 2.54-3.809-1.677-5.203.472-.086.64-.55 2.105-.424 2.644.125.54 4.12 4.219 7.484.726-1.14.699-2.314.317-2.729-.453Z"
    fill="#C2C2C2" />
  <path
    d="M100.634 79.8c-2.401 3.615-3.772 6.965-3.061 7.483.71.517 3.233-1.994 5.634-5.609 2.401-3.615 3.771-6.966 3.061-7.483-.711-.518-3.233 1.993-5.634 5.609Z"
    fill="#B4B4B4" />
  <path
    d="M41.782 22.304c4.415-.389 8.118.694 8.27 2.418.154 1.724-3.302 3.436-7.717 3.825-4.415.389-8.117-.694-8.27-2.418-.153-1.724 3.303-3.436 7.717-3.825Z"
    fill="#EA9B46" />
  <path
    d="M43.298 22.951c3.746-.33 4.788.566 4.897 1.903.108 1.336-.757 2.607-4.503 2.937-3.745.33-6.87-.486-6.979-1.823-.108-1.336 2.84-2.687 6.585-3.017Z"
    fill="#F69B85" />
  <path
    d="M34.661 10.687c.4-.392.728-.852.971-1.358.25-.5.323-1.064.206-1.607-.843-4.876-8.398-1.487-11.187-.284-3.222 1.385-9.335 4.286-8.531 7.63 1.312 5.463 16.153-2.034 18.541-4.38Z"
    fill="#E6E6E6" />
  <path
    d="M32.728 6.772c-.094.745-2.654 2.215-2.654 2.215 3.164-1.1 2.205 2.772 4.587 1.7.437-.45 1.655-1.372 1.859-1.829.203-.457-1.017-4.816-5.798-3.507 1.343-.078 2.1.675 2.006 1.42Z"
    fill="#C2C2C2" />
  <path
    d="M25.9 11.078c4.054-1.782 7.1-3.77 6.806-4.442-.295-.672-3.82.227-7.873 2.008-4.053 1.782-7.1 3.77-6.805 4.442.295.672 3.82-.227 7.873-2.008Z"
    fill="#B4B4B4" />
</svg>
