<svg width="75" height="94" viewBox="0 0 75 94" fill="none" xmlns="http://www.w3.org/2000/svg">
  <g fill="#010101" clip-path="url(#clip0_316:93)">
    <path
      d="M9.57288 25.033L9.91356 25.5793C10.3019 25.2151 10.6338 24.9074 10.9127 24.6689L10.4343 23.9277C10.1277 24.2796 9.84014 24.6486 9.57288 25.033V25.033Z" />
    <path
      d="M20.879 13.7923L20.8596 13.5774C20.3053 13.9106 19.744 14.242 19.1667 14.5735L19.2179 15.1853C19.3341 15.1704 19.448 15.1405 19.5569 15.0961C20.4453 14.3653 20.8861 13.9307 20.879 13.7923Z" />
    <path
      d="M36.9529 28.2707L43.3782 13.319C43.3006 12.3963 44.6762 11.6856 47.5053 11.1866L48.4285 11.1047L48.4991 11.9605C51.2752 11.5223 52.9992 11.2722 53.6711 11.2103C57.2439 10.8922 59.6204 11.3171 60.8008 12.485C60.3183 10.2416 57.677 9.33108 52.8768 9.75354C52.2084 9.81303 50.4843 10.0619 47.7047 10.5001L47.6341 9.64429L46.7127 9.72623C43.8884 10.224 42.5121 10.9353 42.5839 11.8604L36.1497 26.8103C35.4283 27.2583 34.7682 29.1248 34.1692 32.4098C33.0771 34.1494 32.5781 35.5903 32.6723 36.7327L32.7199 37.3026C32.9799 37.2785 33.242 37.2963 33.4966 37.3554C33.6331 36.3709 34.1221 35.2073 34.9635 33.8647C35.5625 30.5846 36.2256 28.7199 36.9529 28.2707Z" />
    <path
      d="M62.2501 14.353L62.1248 12.8489L62.7532 12.7925C63.3261 13.1022 63.847 13.5049 64.296 13.9852C64.0488 12.9618 63.2698 12.0786 61.9588 11.3357L61.3304 11.3921L61.4558 12.8999L61.1663 12.9272C61.4571 13.3656 61.6295 13.8759 61.6658 14.4058L62.2501 14.353Z" />
    <path
      d="M44.1197 44.4352L45.9643 44.2713C49.3006 43.9751 51.8937 44.5165 53.7436 45.8956L53.673 45.058C51.803 43.2249 48.9687 42.4771 45.17 42.8145L43.3254 42.9784C35.8127 46.0291 30.3105 47.7099 26.8189 48.0206C18.8897 64.2877 14.7867 72.9506 14.5102 74.0092L14.8456 73.98C15.238 73.9352 15.626 73.856 16.0053 73.7433C17.5093 70.3527 21.3786 62.2635 27.6133 49.4756C31.1049 49.166 36.607 47.4859 44.1197 44.4352Z" />
    <path
      d="M63.5227 33.1381L71.2543 26.1238C72.976 23.8294 74.0051 20.1505 74.3417 15.087L74.2428 13.9034C74.1253 12.4925 73.6431 11.1399 72.8465 9.98657C73.1758 10.7674 73.3797 11.5983 73.4502 12.4467L73.5473 13.6303C73.2119 18.6998 72.1828 22.3793 70.46 24.6689L62.7249 31.6813C59.9853 33.268 58.6514 34.4819 58.7231 35.3232C59.0268 35.6716 59.321 36.0073 59.6057 36.3302C59.9341 35.5253 61.2397 34.4613 63.5227 33.1381Z" />
    <path
      d="M11.1916 23.1465C11.0804 23.2448 10.971 23.3486 10.8615 23.4579C10.9743 23.409 11.0931 23.3765 11.2146 23.3614L11.1916 23.1465Z" />
    <path
      d="M52.0313 62.2931C49.1482 64.1675 44.8958 67.339 39.2742 71.8076C38.168 72.7023 36.1674 73.373 33.2725 73.8197L33.3007 74.1457L33.6344 74.1165L35.1171 73.6558L35.1436 73.9818C33.096 75.7517 30.1028 76.8121 26.164 77.163C23.9422 78.3939 21.1456 79.6389 17.774 80.8977C17.5709 80.9873 17.3628 81.0645 17.1509 81.129C15.5681 81.7093 13.8617 82.2932 12.0318 82.8808C11.1174 83.1745 10.1725 83.4695 9.1969 83.7657C8.07188 86.1755 6.48967 88.6368 4.45027 91.1497C4.1749 91.838 3.89423 92.6519 3.60651 93.5988L3.62945 93.8847L4.2155 93.8319C6.75739 90.8953 8.685 88.0267 9.99831 85.2261C17.4122 82.9779 23.0679 80.777 26.9654 78.6234C30.9054 78.2738 33.8986 77.2134 35.945 75.4422L35.9168 75.1162L34.4358 75.5769L34.1004 75.6061L34.0739 75.2801C36.9641 74.8322 38.9647 74.1615 40.0756 73.268C45.6984 68.7982 49.9507 65.6267 52.8327 63.7535C61.7211 57.0172 65.9064 50.5499 65.3886 44.3514C65.3698 44.1183 65.1056 43.6442 64.596 42.9292C65.0974 49.1168 60.9091 55.5714 52.0313 62.2931Z" />
    <path
      d="M31.0765 14.0781C26.6176 15.6235 22.1134 18.1322 17.5639 21.6041L16.9337 21.6605C16.909 21.3643 16.4854 21.1033 15.6628 20.8775H15.6328C15.1727 21.181 14.7237 21.5021 14.2859 21.8408L12.7873 23.0936C12.4943 23.3613 12.2083 23.6399 11.9259 23.9185L12.0018 24.8162C11.6832 24.8801 11.3787 25.0035 11.1033 25.1804L11.8305 26.3076C13.1949 24.7826 14.7426 23.4437 16.436 22.3234C17.2703 22.5516 17.7004 22.815 17.7263 23.1137L18.3547 23.0572C22.2688 20.0757 26.1481 17.8044 29.9927 16.2432C30.4109 15.7572 30.7905 15.2371 31.1277 14.6881L31.0765 14.0781Z" />
    <path
      d="M5.86063 84.6799L5.81827 84.1737L5.80944 84.068C5.51995 84.0935 5.33284 84.0571 5.24987 83.957C5.21995 83.9227 5.20194 83.8791 5.19868 83.8331L4.59498 84.1755L4.00893 84.2283L3.95774 83.6165L3.62235 83.6456C3.29226 83.957 2.59677 84.2665 1.54295 84.5725C1.38231 84.8511 1.22168 85.1297 1.06458 85.3992C1.1217 85.7147 1.24721 86.0129 1.43174 86.2714C3.00395 85.8854 3.99893 85.4957 4.4167 85.1023L4.75032 85.0714L4.80151 85.6832L5.38932 85.6322L5.77414 85.4137C5.84299 85.1759 5.87224 84.9278 5.86063 84.6799V84.6799Z" />
    <path
      d="M62.7249 31.6812L70.4547 24.6688C72.1811 22.3732 73.212 18.6936 73.5474 13.6302L73.4503 12.4466C73.3797 11.5982 73.1758 10.7673 72.8466 9.98649C71.8122 7.53186 69.5068 5.46812 65.9305 3.79528C63.1509 1.84929 58.1401 0.800427 50.898 0.648682C44.8964 1.18283 37.0706 3.371 27.4208 7.21319C24.5226 9.36443 21.5016 11.334 18.3742 13.1112L18.4183 13.7231C18.7382 13.6663 19.0435 13.5423 19.315 13.3589C19.7069 13.3249 19.9187 13.4979 19.9505 13.8779L20.5542 13.5373L20.8472 13.51V13.5756L20.8666 13.7959C20.8772 13.9343 20.4365 14.3671 19.5445 15.0942C18.4983 15.944 16.829 17.2053 14.5366 18.8782L14.8773 19.4245L14.5843 19.4499L13.9312 19.2205C13.9465 19.4123 13.6476 19.5337 13.0344 19.5847L13.0609 19.9106L13.767 20.7119C13.4414 20.7114 13.1194 20.642 12.8209 20.5079C11.4511 20.6293 10.1013 21.6527 8.77148 23.578L9.11216 24.1243C10.2595 23.0317 10.9309 22.4788 11.1263 22.4654L11.1845 23.1483L11.2022 23.3632C11.0807 23.3783 10.9619 23.4108 10.8491 23.4597C10.6601 23.5379 10.4762 23.6285 10.2984 23.731L10.4219 23.9131L10.9003 24.6542L11.0256 24.8491C11.3151 24.5286 11.6093 24.2172 11.9082 23.9149C12.1907 23.6327 12.4766 23.3577 12.7697 23.09C12.955 22.9225 13.1404 22.7586 13.3292 22.5965C13.5181 22.4345 13.7494 22.2451 13.9629 22.0758L14.2683 21.8372C14.7061 21.5009 15.155 21.1798 15.6152 20.8739H15.6275H15.6452C16.4689 21.0997 16.8926 21.3607 16.9161 21.6569L17.5463 21.6005C22.0958 18.1298 26.6 15.6211 31.0589 14.0745L31.1278 14.6882C30.7906 15.2372 30.411 15.7572 29.9927 16.2433C29.7562 16.5 29.5691 16.6348 29.4332 16.6475C29.4637 17.0677 29.6149 17.469 29.8674 17.8002C29.9321 18.5892 27.9104 23.8633 23.8022 33.6224C14.4678 56.3138 6.62382 73.0877 0.270264 83.9442C0.327756 84.2591 0.453248 84.5566 0.637426 84.8146C0.965754 84.7345 1.26584 84.6544 1.54298 84.5724C2.6021 84.2665 3.29229 83.957 3.62238 83.6456L3.95777 83.6164L4.00896 84.2283L4.59501 84.1755L5.19871 83.8331C5.20197 83.8791 5.21998 83.9227 5.2499 83.957C5.33287 84.0571 5.51998 84.0935 5.80947 84.068L5.8183 84.1736L5.86066 84.6799C5.87167 84.926 5.84243 85.1722 5.77417 85.4083C5.55895 86.1207 5.2539 86.8009 4.86685 87.4313C4.2255 88.1743 3.5406 89.7421 2.81216 92.1348L2.8351 92.4189L3.42292 92.3679C3.77596 91.9564 4.11841 91.5485 4.45026 91.1406C6.48966 88.6325 8.07423 86.1743 9.20396 83.7658C10.1807 83.4696 11.1257 83.1746 12.0389 82.8808C13.8641 82.2932 15.5705 81.7093 17.158 81.129L17.7811 80.8978C21.1526 79.6377 23.9516 78.3928 26.1781 77.163C30.1181 76.8134 33.1113 75.753 35.1577 73.9818L35.1313 73.6559L33.6485 74.1166L33.3149 74.1457L33.2866 73.8197C36.1768 73.3718 38.1774 72.7011 39.2883 71.8076C44.9111 67.3378 49.1634 64.1663 52.0454 62.2932C60.922 55.5727 65.1103 49.118 64.6101 42.9292C64.611 42.9183 64.611 42.9074 64.6101 42.8964C64.5607 42.2955 62.8979 40.1068 59.6217 36.3301C59.3416 36.006 59.0474 35.6703 58.7391 35.3231C58.6614 34.4819 59.99 33.2679 62.7249 31.6812ZM49.1487 53.5526L41.3659 59.915C35.5867 63.824 32.4734 65.7985 32.0263 65.8385C24.1134 70.3302 18.7743 72.9651 16.0088 73.7433C15.6294 73.856 15.2415 73.9352 14.8491 73.98L14.5137 74.0091C14.7914 72.9433 18.8943 64.2804 26.8224 48.0206C30.314 47.7098 35.8161 46.0291 43.3289 42.9784L45.1735 42.8145C48.9722 42.4782 51.8065 43.226 53.6765 45.0579L53.7471 45.8955L53.7753 46.2397C52.3749 50.3915 50.8327 52.8291 49.1487 53.5526ZM54.0242 27.0324C53.2087 28.0363 50.9898 29.7425 47.3676 32.151C46.1661 32.2591 41.7002 34.0527 33.9697 37.5319C33.8206 37.4597 33.6644 37.4042 33.5037 37.3662C33.2491 37.3071 32.987 37.2893 32.727 37.3134L32.6794 36.7435C32.5841 35.6011 33.083 34.1602 34.1763 32.4205C34.7753 29.1356 35.4355 27.2691 36.1568 26.8211L42.591 11.8712C42.5157 10.9461 43.892 10.2347 46.7198 9.73702L47.6412 9.65508L47.7119 10.5109C50.4903 10.0739 52.2143 9.82504 52.8839 9.76434C57.6794 9.33338 60.3183 10.2402 60.8008 12.4848C60.8333 12.6373 60.8563 12.7918 60.8697 12.9474L61.1662 12.9219L61.4557 12.8945L61.3304 11.3923L61.9588 11.3358C63.2698 12.0788 64.0488 12.9619 64.2959 13.9853C64.3329 14.1378 64.3583 14.293 64.3718 14.4496C64.4424 15.2933 64.0082 16.3313 63.0691 17.5634C62.679 17.598 62.4584 17.3176 62.4089 16.7185L61.7788 16.775L61.6358 18.5959C59.0468 22.602 57.1639 24.6591 55.9871 24.7671C54.9315 26.2542 54.2772 27.0093 54.0242 27.0324Z"
      fill="white" />
  </g>
  <defs>
    <clipPath id="clip0_316:93">
      <rect width="74.0732" height="93.2324" fill="white" transform="translate(0.270264 0.648682)" />
    </clipPath>
  </defs>
</svg>
