<svg viewBox="0 0 95 98" fill="none" xmlns="http://www.w3.org/2000/svg">
  <path
    d="M37.2587 97.47C37.2587 97.4701 37.2586 97.4701 37.2585 97.4701L5.64045 67.9562C3.09377 65.579 1.9678 62.0478 2.66837 58.6352L10.3894 21.0242C11.105 17.5381 13.6194 14.6951 16.9918 13.5587L51.573 1.90555C55.0563 0.731734 58.9028 1.56358 61.5899 4.0718L88.846 29.5137C91.3927 31.8909 92.5187 35.4221 91.8181 38.8347L84.0974 76.4457C83.3818 79.9317 80.8674 82.7748 77.495 83.9112L37.2588 97.4699C37.2587 97.4699 37.2587 97.4699 37.2587 97.47ZM19.9858 57.931C19.9858 57.9312 19.9859 57.9314 19.9861 57.9315L36.9193 73.7139C39.6078 76.2197 43.4541 77.0488 46.9362 75.8733L63.083 70.4219C66.451 69.2848 68.9622 66.4452 69.6789 62.9634L73.3695 45.034C74.0721 41.6208 72.9472 38.0881 70.4005 35.7096L57.5747 23.7309C54.8826 21.2165 51.0262 20.3858 47.5376 21.5689L31.3925 27.0439C28.0306 28.184 25.5251 31.021 24.8093 34.498L19.9859 57.9309C19.9858 57.9309 19.9858 57.931 19.9858 57.931Z"
    fill="white" />
  <path
    d="M69.2057 78.2297C67.4409 81.4006 64.0967 83.3667 60.4678 83.3667H33.8273C30.1983 83.3667 26.8541 81.4006 25.0894 78.2297L11.4362 53.6977C9.75343 50.6741 9.75343 46.9953 11.4362 43.9717L25.0894 19.4397C26.8542 16.2687 30.1983 14.3027 33.8273 14.3027H60.4678C64.0967 14.3027 67.4409 16.2687 69.2057 19.4397L82.8588 43.9717C84.5416 46.9953 84.5416 50.6741 82.8588 53.6977L69.2057 78.2297ZM31.8491 66.0618C33.6124 69.2377 36.9593 71.2076 40.5919 71.2076H53.7121C57.3399 71.2076 60.6832 69.2429 62.4484 66.0735L69.3398 53.7006C71.0247 50.6754 71.0247 46.9939 69.3398 43.9688L62.4484 31.5959C60.6832 28.4265 57.3399 26.4618 53.7121 26.4618H40.5919C36.9593 26.4618 33.6124 28.4317 31.8491 31.6075L24.9794 43.9805C23.3031 46.9995 23.3031 50.6698 24.9793 53.6889L31.8491 66.0618Z"
    fill="#D7DEEA" />
</svg>
