<svg width="135" height="132" viewBox="0 0 135 132" fill="none" xmlns="http://www.w3.org/2000/svg">
  <ellipse cx="64" cy="66.2978" rx="64" ry="63.4801" fill="url(#paint0_linear)" />
  <mask id="mask0" style="mask-type:alpha" maskUnits="userSpaceOnUse" x="0" y="2" width="128" height="128">
    <ellipse cx="64" cy="66.2978" rx="64" ry="63.4801" fill="white" />
  </mask>
  <g mask="url(#mask0)">
    <path
      d="M38.3176 84.7809C54.447 101.6 55.1143 119.618 43.7894 126.626C-12.0626 109.801 12.5716 64.2135 24.9336 81.0432C28.7772 86.276 34.0817 80.3639 38.3176 84.7809Z"
      fill="#72BFB7" />
    <path
      d="M45.5726 44.3134C29.5237 54.5288 25.8351 85.9078 34.3352 93.498C22.6656 97.4449 -0.673706 95.3197 -0.673706 55.2433C-0.673706 15.167 42.5734 2.52237 63.6075 2.67418C62.5991 3.585 60.0084 10.0663 62.4288 16.9886C65.4543 25.6415 84.0393 32.0172 76.2595 42.0363C70.0357 50.0516 55.8557 37.7681 45.5726 44.3134Z"
      fill="#65C2C9" />
    <path opacity="0.3"
      d="M104.758 67.4893C117.439 55.1533 120.525 35.4152 112.842 24.3897C112.842 24.3897 124.968 35.0811 130.021 51.4523C135.074 67.8234 134.559 106.118 87.2421 127.628C88.2822 126.631 79.4585 110.748 81.5158 99.5635C84.0307 85.8913 92.0764 79.8254 104.758 67.4893Z"
      fill="#83E1E2" />
    <path
      d="M42.6443 42.977C27.144 53.1923 23.5815 84.5714 31.791 92.1616C20.5203 96.1085 -2.021 93.9832 -2.021 53.9069C-2.021 13.8305 39.7475 1.18595 60.0626 1.33775C59.0886 2.24858 56.5865 8.72991 58.9242 15.6522C61.8462 24.305 79.7958 30.6808 72.282 40.6999C66.271 48.7152 52.5758 36.4317 42.6443 42.977Z"
      fill="#C8E3D0" />
    <path
      d="M42.06 40.6918C27.9314 50.019 24.6842 78.6698 32.1672 85.6001C21.894 89.2039 1.34741 87.2634 1.34741 50.6714C1.34741 14.0794 39.4196 2.53422 57.9369 2.67282C57.0491 3.50446 54.7684 9.42228 56.8992 15.7427C59.5626 23.6433 75.9238 29.4647 69.0749 38.6127C63.5959 45.9311 51.1126 34.7156 42.06 40.6918Z"
      fill="#D4F0E1" />
    <path
      d="M116.211 26.3943C116.978 27.1287 117.579 28.1082 118.027 29.2851C120.935 34.2225 126.53 45.0588 128.674 58.4683C131.628 76.949 130.575 107.916 90.2737 126.292C91.1596 125.44 85.8267 111.123 87.579 101.568C89.721 89.8881 94.2936 83.0394 105.095 72.5009C114.749 63.0815 121.798 39.1909 118.027 29.2851C116.927 27.4179 116.211 26.3943 116.211 26.3943Z"
      fill="#C8E3D0" />
    <path
      d="M116.717 30.6686C117.202 31.1203 117.626 31.6665 117.991 32.2956C120.717 35.9939 127.05 45.8091 129.347 59.8049C132.309 77.8466 131.032 102.57 91.9854 123.953C92.8732 123.122 89.8141 109.418 91.9854 100.526C94.6703 89.5316 96.0002 85.8652 106.825 75.577C116.925 65.9771 123.094 41.0702 117.991 32.2956C117.204 31.2265 116.717 30.6686 116.717 30.6686Z"
      fill="#D4F0E1" />
    <path
      d="M34.4499 84.3598C50.3489 99.8338 49.3341 119.176 38.171 125.624C-1.23601 114.544 -2.19668 69.7455 1.29885 51.6926C1.88143 48.6838 4.89686 47.8241 8.74092 49.9733C17.1978 54.7014 16.5213 74.9035 21.2571 80.9212C25.0458 85.7353 30.2746 80.2961 34.4499 84.3598Z"
      fill="#F2BD57" />
    <path
      d="M28.2951 98.2374C20.805 97.8623 19.9356 107.768 20.27 112.768C25.8876 121.018 33.5337 124.331 36.6545 124.956C37.1004 124.956 42.3391 121.675 39.664 116.987C32.4493 104.345 33.3109 98.4886 28.2951 98.2374Z"
      fill="#C8E3D0" />
    <path
      d="M62.9894 33.4106C63.0524 28.2361 64.9599 25.2288 58.9474 22.7192C51.5756 19.6422 39.6727 20.7145 34.2201 29.494C32.463 32.3233 36.3261 36.2195 39.6727 36.0633C53.5579 35.4152 62.9265 38.585 62.9894 33.4106Z"
      fill="#F2BD57" />
    <path
      d="M28.0255 111.596C24.5301 111.427 24.1244 115.885 24.2804 118.135C26.9019 121.847 30.4701 123.338 31.9265 123.619C32.1346 123.619 33.1433 121.524 33.331 120.033C33.8161 116.18 30.3662 111.709 28.0255 111.596Z"
      fill="#F69B85" />
    <g style="mix-blend-mode:color-burn" opacity="0.2">
      <path
        d="M0 66.2978C0 87.7375 10.7157 106.695 27.1246 118.188C12.633 106.55 3.36842 88.761 3.36842 68.8257C3.36842 33.7667 32.0222 5.34568 67.3684 5.34568C81.0993 5.34568 93.8203 9.63464 104.244 16.9356C93.2499 8.10653 79.2477 2.8177 64 2.8177C28.6538 2.8177 0 31.2387 0 66.2978Z"
        fill="#404859" />
    </g>
    <g style="mix-blend-mode:color-burn" opacity="0.3">
      <path fill-rule="evenodd" clip-rule="evenodd"
        d="M111.421 103.431L125.077 89.043C125.077 89.043 130.579 71.2298 122.951 78.1654C111.3 88.7593 111.421 103.431 111.421 103.431Z"
        fill="#2B303B" fill-opacity="0.5" />
    </g>
    <path fill-rule="evenodd" clip-rule="evenodd"
      d="M43.5374 9.85363L22.8454 14.565C22.8454 14.565 6.88413 26.0641 17.7435 24.312C34.3309 21.6357 43.5374 9.85363 43.5374 9.85363Z"
      fill="#BAE8D6" />
  </g>
  <path fill-rule="evenodd" clip-rule="evenodd"
    d="M111.809 100.336C111.698 101.017 111.718 101.737 111.866 102.464C112.002 103.188 112.379 103.888 112.942 104.457C117.776 109.686 123.12 101.519 125.131 98.5597C127.459 95.1481 131.654 88.354 128.098 84.8929C122.289 79.2392 112.469 96.2635 111.809 100.336Z"
    fill="#D4F0E1" />
  <path fill-rule="evenodd" clip-rule="evenodd"
    d="M117.033 103.836C116.533 102.912 118.085 99.7691 118.085 99.7691C115.589 102.816 113.49 97.7568 111.809 100.336C111.705 101.104 111.146 102.861 111.297 103.508C111.448 104.156 116.268 108.571 120.325 104.379C118.951 105.218 117.534 104.76 117.033 103.836Z"
    fill="#AAD1B9" />
  <path
    d="M120.86 95.0021C117.963 99.3404 116.31 103.361 117.167 103.982C118.024 104.603 121.067 101.59 123.963 97.2514C126.86 92.9131 128.513 88.8927 127.656 88.2715C126.799 87.6504 123.756 90.6637 120.86 95.0021Z"
    fill="#68C8CB" />
  <path
    d="M49.8646 26.0072C55.1906 25.5408 59.6574 26.8397 59.8415 28.9085C60.0257 30.9773 55.8575 33.0324 50.5315 33.4989C45.2056 33.9653 40.7388 32.6663 40.5546 30.5976C40.3705 28.5288 44.5387 26.4737 49.8646 26.0072Z"
    fill="#EA9B46" />
  <path
    d="M51.6931 26.7841C56.2115 26.3884 57.4687 27.4635 57.6 29.0672C57.7313 30.6709 56.6869 32.1958 52.1685 32.5915C47.6502 32.9873 43.8809 32.008 43.7496 30.4043C43.6183 28.8007 47.1747 27.1799 51.6931 26.7841Z"
    fill="#F69B85" />
  <path fill-rule="evenodd" clip-rule="evenodd"
    d="M41.274 12.0673C41.7558 11.5964 42.1522 11.0449 42.4458 10.4373C42.7477 9.83686 42.8352 9.16021 42.6939 8.50879C41.677 2.65759 32.5632 6.72409 29.198 8.16816C25.3118 9.8296 17.9376 13.3111 18.9066 17.3242C20.4895 23.8796 38.3932 14.8836 41.274 12.0673Z"
    fill="#D4F0E1" />
  <path fill-rule="evenodd" clip-rule="evenodd"
    d="M38.942 7.36845C38.828 8.26323 35.7398 10.0266 35.7398 10.0266C39.5571 8.70707 38.4006 13.3537 41.274 12.0673C41.8006 11.5278 43.2707 10.421 43.5162 9.87228C43.7616 9.32359 42.2897 4.09318 36.5216 5.66314C38.1422 5.57036 39.0561 6.47368 38.942 7.36845Z"
    fill="#AAD1B9" />
  <path
    d="M30.7057 12.5357C35.5951 10.3982 39.2706 8.01181 38.9151 7.20552C38.5595 6.39924 34.3076 7.47838 29.4182 9.61586C24.5287 11.7533 20.8533 14.1397 21.2088 14.946C21.5644 15.7523 25.8163 14.6732 30.7057 12.5357Z"
    fill="#68C8CB" />
  <defs>
    <linearGradient id="paint0_linear" x1="48.5053" y1="57.4662" x2="91.1909" y2="111.596"
      gradientUnits="userSpaceOnUse">
      <stop stop-color="#68C8CB" />
      <stop offset="1" stop-color="#52ABB7" />
    </linearGradient>
  </defs>
</svg>
